<svg width="22" height="21" viewBox="0 0 22 21" fill="none" xmlns="http://www.w3.org/2000/svg">
<path id="Vector" d="M11.4296 0.418037L12.4941 3.28395C13.5206 6.04925 15.7079 8.22839 18.4819 9.25212L21.3582 10.3123C21.5784 10.394 21.5784 10.7047 21.3582 10.7857L18.4819 11.8466C15.7072 12.8703 13.5206 15.0501 12.4941 17.8147L11.4296 20.6807C11.3476 20.9001 11.0359 20.9001 10.9546 20.6807L9.89015 17.8147C8.86362 15.0495 6.6764 12.8703 3.90239 11.8466L1.02606 10.7857C0.805848 10.7047 0.805848 10.394 1.02606 10.3123L3.90239 9.25212C6.6764 8.22839 8.86362 6.04857 9.89015 3.28395L10.9546 0.418037C11.0359 0.197894 11.3476 0.197894 11.4296 0.418037Z" fill="#141414"/>
</svg>
