<svg xmlns="http://www.w3.org/2000/svg" viewBox="0 0 159 114" fill="none">
  <mask id="mask0_20_1757" style="mask-type:luminance" maskUnits="userSpaceOnUse" x="0" y="0">
    <path d="M158.97 0.606934L0.0496216 0.606934L0.0496216 113.287H158.97V0.606934Z" fill="white"/>
  </mask>
  <g mask="url(#mask0_20_1757)">
    <path d="M69.6711 0.606934C80.5322 0.606934 90.9324 6.78307 95.8107 17.2891C96.5524 18.8848 97.1335 20.5135 97.5644 22.1572C98.4752 25.6424 101.59 28.0907 105.189 28.0907H106.832C121.316 28.0907 133.058 39.8425 133.058 54.3388C133.058 57.2236 132.593 60.0012 131.735 62.5952C131.324 63.841 132.23 65.1309 133.543 65.1309H134.914C148.202 65.1309 158.97 75.908 158.97 89.2067C158.97 102.505 148.202 113.282 134.914 113.282H24.1062C10.8184 113.282 0.0496216 102.505 0.0496216 89.2067C0.0496216 75.908 10.8184 65.1309 24.1062 65.1309H24.1111C25.4238 65.1309 24.7311 63.841 24.3193 62.5952C23.4619 59.9965 22.9969 57.2236 22.9969 54.3388C22.9969 39.8425 34.7393 28.0907 49.2237 28.0907H56.7368C62.4872 28.0907 66.295 22.1178 63.8724 16.9014L58.8929 6.17712C58.1371 4.5531 58.9609 2.63344 60.6561 2.06618C63.6258 1.07719 66.6729 0.606934 69.6806 0.606934" fill="url(#paint0_linear_20_1757)"/>
  </g>
  <defs>
    <linearGradient id="paint0_linear_20_1757" x1="79.5099" y1="0.606934" x2="79.5099" y2="113.282" gradientUnits="userSpaceOnUse">
      <stop stop-color="#444444"/>
      <stop offset="1" stop-color="#232323"/>
    </linearGradient>
  </defs>
</svg>