<svg width="25" height="25" viewBox="0 0 25 25" fill="none" xmlns="http://www.w3.org/2000/svg">
<path d="M8.53827 4.43408C7.77576 4.43408 5.47688 5.36667 5.06444 5.55305C4.65201 5.73942 4.19422 6.32123 3.67477 7.28146C3.15462 8.24168 2.73722 9.36419 2.05904 11.0154C1.38157 12.6665 1.22354 15.8498 1.24621 16.8214C1.26889 17.7929 1.38015 18.5519 2.37581 19.1266C3.37076 19.7006 4.25091 20.3016 5.17712 20.663C6.10404 21.0244 6.73616 21.2845 7.1656 20.9231C7.59505 20.5616 7.8778 19.9288 7.8778 19.9288C7.8778 19.9288 8.28457 19.364 7.51639 19.0253C6.74821 18.6858 6.36412 18.4484 6.39742 18.0984C6.43144 17.7483 6.48742 17.5562 6.67947 17.6016C6.87151 17.6469 7.32434 18.4598 9.06409 18.8325C10.8038 19.2053 12.4996 19.1493 12.4996 19.1493C12.4996 19.1493 14.1962 19.206 15.9359 18.8325C17.6757 18.4598 18.1278 17.6469 18.3198 17.6016C18.5119 17.5562 18.5679 17.7483 18.6019 18.0976C18.6359 18.4484 18.2518 18.6858 17.4836 19.0253C16.7154 19.364 17.1222 19.9288 17.1222 19.9288C17.1222 19.9288 17.405 20.5609 17.8344 20.9231C18.2631 21.2845 18.896 21.0244 19.8222 20.663C20.7484 20.3016 21.6292 19.7013 22.6242 19.1266C23.6199 18.5519 23.7311 17.7929 23.7538 16.8214C23.7765 15.8505 23.6184 12.6665 22.9403 11.0154C22.2628 9.36419 21.8447 8.24168 21.3245 7.28146C20.8058 6.32123 20.3473 5.73942 19.9356 5.55234C19.5231 5.36667 17.2235 4.43408 16.461 4.43408C15.6985 4.43408 15.4732 4.96557 15.4732 4.96557L15.2074 5.55305C15.2074 5.55305 13.4216 5.2136 12.5117 5.21289C11.6018 5.21289 9.79259 5.55305 9.79259 5.55305L9.52684 4.96486C9.52684 4.96486 9.30149 4.43408 8.53827 4.43408ZM8.62118 11.4838H8.64953C9.76141 11.4838 10.6621 12.4568 10.6621 13.6565C10.6621 14.857 9.76141 15.8292 8.64953 15.8292C7.53765 15.8292 6.63695 14.857 6.63695 13.6565C6.63624 12.4681 7.52064 11.5001 8.62118 11.4838ZM16.3505 11.4838H16.3788C17.4794 11.5001 18.3631 12.4688 18.3631 13.6565C18.3631 14.857 17.4624 15.8292 16.3505 15.8292C15.2379 15.8292 14.3379 14.857 14.3379 13.6565C14.3379 12.4568 15.2379 11.4838 16.3505 11.4838Z" fill="black"/>
</svg>
