<svg width="24" height="24" viewBox="0 0 24 24" fill="none" xmlns="http://www.w3.org/2000/svg">
<g id="icon/meta-mask">
<g id="Group 3">
<path id="Vector" d="M21.0103 15.8511L19.7979 19.7928L17.418 19.1669L21.0103 15.8511Z" fill="#E4761B" stroke="#E4761B" stroke-width="0.190386"/>
<path id="Vector_2" d="M17.418 19.1669L19.7135 16.1425L21.0103 15.8511L17.418 19.1669Z" fill="#E4761B" stroke="#E4761B" stroke-width="0.190386"/>
<path id="Vector_3" d="M19.2266 12.8792L21.0103 15.851L19.7135 16.1425L19.2266 12.8792ZM19.2266 12.8792L20.3743 12.1147L21.0103 15.851L19.2266 12.8792Z" fill="#F6851B" stroke="#F6851B" stroke-width="0.190386"/>
<path id="Vector_4" d="M17.7657 10.6336L21.0649 9.33398L20.9009 10.0459L17.7657 10.6336ZM20.7966 10.9011L17.7657 10.6336L20.9009 10.0459L20.7966 10.9011Z" fill="#763D16" stroke="#763D16" stroke-width="0.190386"/>
<path id="Vector_5" d="M20.7966 10.9011L20.3743 12.1147L17.7657 10.6336L20.7966 10.9011ZM21.4574 9.63499L20.9009 10.0459L21.0649 9.33398L21.4574 9.63499ZM20.7966 10.9011L20.9009 10.0459L21.3432 10.3994L20.7966 10.9011Z" fill="#763D16" stroke="#763D16" stroke-width="0.190386"/>
<path id="Vector_6" d="M14.8591 18.2065L15.6839 18.4598L17.418 19.1669L14.8591 18.2065Z" fill="#E2761B" stroke="#E2761B" stroke-width="0.190386"/>
<path id="Vector_7" d="M20.3744 12.1144L20.7968 10.9009L21.1595 11.1684L20.3744 12.1144ZM20.3744 12.1144L16.951 11.0299L17.7659 10.6333L20.3744 12.1144Z" fill="#763D16" stroke="#763D16" stroke-width="0.190386"/>
<path id="Vector_8" d="M18.5808 6.91162L17.7659 10.6335L16.951 11.0301L18.5808 6.91162Z" fill="#763D16" stroke="#763D16" stroke-width="0.190386"/>
<path id="Vector_9" d="M21.0649 9.33398L17.7657 10.6335L18.5806 6.91162L21.0649 9.33398Z" fill="#763D16" stroke="#763D16" stroke-width="0.190386"/>
<path id="Vector_10" d="M18.5806 6.91152L22.0238 6.5293L21.0649 9.33388L18.5806 6.91152Z" fill="#763D16" stroke="#763D16" stroke-width="0.190386"/>
<path id="Vector_11" d="M20.3744 12.1148L19.2267 12.8793L16.951 11.0303L20.3744 12.1148Z" fill="#F6851B" stroke="#F6851B" stroke-width="0.190386"/>
<path id="Vector_12" d="M21.8748 3.84912L22.0238 6.52949L18.5806 6.91171L21.8748 3.84912Z" fill="#763D16" stroke="#763D16" stroke-width="0.190386"/>
<path id="Vector_13" d="M21.8748 3.84912L14.9932 8.6604L14.9038 5.39714L21.8748 3.84912Z" fill="#E2761B" stroke="#E2761B" stroke-width="0.190386"/>
<path id="Vector_14" d="M9.78625 5.00537L14.9039 5.39715L14.9934 8.66041L9.78625 5.00537Z" fill="#F6851B" stroke="#F6851B" stroke-width="0.190386"/>
<path id="Vector_15" d="M16.9509 11.0301L14.9933 8.66031L18.5806 6.91162L16.9509 11.0301Z" fill="#763D16" stroke="#763D16" stroke-width="0.190386"/>
<path id="Vector_16" d="M16.9509 11.0303L19.2266 12.8793L16.0317 13.2185L16.9509 11.0303Z" fill="#E4761B" stroke="#E4761B" stroke-width="0.190386"/>
<path id="Vector_17" d="M16.0317 13.2182L14.9933 8.66016L16.9509 11.03L16.0317 13.2182Z" fill="#E4761B" stroke="#E4761B" stroke-width="0.190386"/>
<path id="Vector_18" d="M18.5806 6.91171L14.9933 8.6604L21.8748 3.84912L18.5806 6.91171Z" fill="#763D16" stroke="#763D16" stroke-width="0.190386"/>
<path id="Vector_19" d="M9.83093 19.0905L11.4557 20.7197L9.24463 18.7847L9.83093 19.0905Z" fill="#C0AD9E" stroke="#C0AD9E" stroke-width="0.190386"/>
<path id="Vector_20" d="M17.418 19.1669L18.1881 16.3528L19.7135 16.1426L17.418 19.1669Z" fill="#CD6116" stroke="#CD6116" stroke-width="0.190386"/>
<path id="Vector_21" d="M3.24243 11.25L6.05467 8.40723L3.60514 10.9108L3.24243 11.25Z" fill="#E2761B" stroke="#E2761B" stroke-width="0.190386"/>
<path id="Vector_22" d="M19.7136 16.1425L18.1882 16.3527L19.2266 12.8792L19.7136 16.1425ZM14.9934 8.66041L12.2557 8.57441L9.78625 5.00537L14.9934 8.66041Z" fill="#F6851B" stroke="#F6851B" stroke-width="0.190386"/>
<path id="Vector_23" d="M19.2265 12.8789L18.1881 16.3524L18.1036 14.6563L19.2265 12.8789Z" fill="#E4751F" stroke="#E4751F" stroke-width="0.190386"/>
<path id="Vector_24" d="M16.0317 13.2181L19.2266 12.8789L18.1037 14.6563L16.0317 13.2181Z" fill="#CD6116" stroke="#CD6116" stroke-width="0.190386"/>
<path id="Vector_25" d="M12.2555 8.57422L14.9932 8.66022L16.0317 13.2183L12.2555 8.57422Z" fill="#F6851B" stroke="#F6851B" stroke-width="0.190386"/>
<path id="Vector_26" d="M12.2556 8.5743L4.86723 2L9.78617 5.00526L12.2556 8.5743ZM9.7812 20.0889L3.36174 22L2.07983 17.2938L9.7812 20.0889Z" fill="#E4761B" stroke="#E4761B" stroke-width="0.190386"/>
<path id="Vector_27" d="M4.19641 12.4251L6.6211 10.5952L8.65327 11.0491L4.19641 12.4251Z" fill="#763D16" stroke="#763D16" stroke-width="0.190386"/>
<path id="Vector_28" d="M8.65326 11.0494L6.62109 10.5955L7.70922 6.27637L8.65326 11.0494Z" fill="#763D16" stroke="#763D16" stroke-width="0.190386"/>
<path id="Vector_29" d="M3.6051 10.9106L6.62106 10.5952L4.19637 12.4251L3.6051 10.9106Z" fill="#763D16" stroke="#763D16" stroke-width="0.190386"/>
<path id="Vector_30" d="M18.1037 14.6564L16.8516 14.0496L16.0317 13.2183L18.1037 14.6564Z" fill="#CD6116" stroke="#CD6116" stroke-width="0.190386"/>
<path id="Vector_31" d="M3.60525 10.9107L3.3916 9.82617L6.62121 10.5954L3.60525 10.9107Z" fill="#763D16" stroke="#763D16" stroke-width="0.190386"/>
<path id="Vector_32" d="M16.5933 15.4163L16.8516 14.0498L18.1037 14.6566L16.5933 15.4163Z" fill="#233447" stroke="#233447" stroke-width="0.190386"/>
<path id="Vector_33" d="M18.1882 16.3524L16.5933 15.4159L18.1037 14.6562L18.1882 16.3524Z" fill="#F6851B" stroke="#F6851B" stroke-width="0.190386"/>
<path id="Vector_34" d="M6.62112 10.5955L3.39151 9.8263L3.12817 8.91373L6.62112 10.5955ZM7.70925 6.27637L6.62112 10.5955L3.12817 8.91373L7.70925 6.27637ZM7.70925 6.27637L12.2555 8.5745L8.65329 11.0494L7.70925 6.27637Z" fill="#763D16" stroke="#763D16" stroke-width="0.190386"/>
<path id="Vector_35" d="M8.6532 11.0491L12.2555 8.57422L13.8603 13.2899L8.6532 11.0491ZM13.8603 13.2899L8.88176 13.1896L8.6532 11.0491L13.8603 13.2899Z" fill="#E4761B" stroke="#E4761B" stroke-width="0.190386"/>
<path id="Vector_36" d="M4.19641 12.4252L8.65327 11.0491L8.88182 13.1896L4.19641 12.4252ZM16.0317 13.2183L13.8604 13.2899L12.2555 8.57422L16.0317 13.2183Z" fill="#F6851B" stroke="#F6851B" stroke-width="0.190386"/>
<path id="Vector_37" d="M16.8516 14.0496L16.5932 15.4161L16.0317 13.2183L16.8516 14.0496Z" fill="#CD6116" stroke="#CD6116" stroke-width="0.190386"/>
<path id="Vector_38" d="M4.86731 2L12.2557 8.5743L7.70936 6.27616L4.86731 2Z" fill="#763D16" stroke="#763D16" stroke-width="0.190386"/>
<path id="Vector_39" d="M2.07983 17.2939L8.31049 17.0454L9.78121 20.0889L2.07983 17.2939Z" fill="#E4761B" stroke="#E4761B" stroke-width="0.190386"/>
<path id="Vector_40" d="M9.78126 20.0887L8.31055 17.0452L11.3712 16.9019L9.78126 20.0887Z" fill="#CD6116" stroke="#CD6116" stroke-width="0.190386"/>
<path id="Vector_41" d="M16.5932 15.4162L18.1881 16.3527L19.0676 18.345L16.5932 15.4162ZM8.88188 13.1897L2.07983 17.2939L4.19647 12.4253L8.88188 13.1897ZM8.31049 17.0455L2.07983 17.2939L8.88188 13.1897L8.31049 17.0455ZM16.0317 13.2184L16.4392 14.6422L14.4716 14.7521L16.0317 13.2184ZM14.4716 14.7521L13.8604 13.2901L16.0317 13.2184L14.4716 14.7521Z" fill="#F6851B" stroke="#F6851B" stroke-width="0.190386"/>
<path id="Vector_42" d="M11.4556 20.7195L9.78113 20.0889L15.6044 21.0301L11.4556 20.7195Z" fill="#C0AD9E" stroke="#C0AD9E" stroke-width="0.190386"/>
<path id="Vector_43" d="M4.19641 12.4252L3.24243 11.2499L3.60514 10.9106L4.19641 12.4252Z" fill="#763D16" stroke="#763D16" stroke-width="0.190386"/>
<path id="Vector_44" d="M16.2652 20.3325L15.6044 21.0301L9.78113 20.0889L16.2652 20.3325Z" fill="#D7C1B3" stroke="#D7C1B3" stroke-width="0.190386"/>
<path id="Vector_45" d="M16.5782 18.6219L9.78113 20.0887L11.3711 16.9019L16.5782 18.6219Z" fill="#E4761B" stroke="#E4761B" stroke-width="0.190386"/>
<path id="Vector_46" d="M9.78113 20.0889L16.5782 18.6221L16.2652 20.3325L9.78113 20.0889Z" fill="#D7C1B3" stroke="#D7C1B3" stroke-width="0.190386"/>
<path id="Vector_47" d="M3.12813 8.91341L2.90454 5.23926L7.7092 6.27605L3.12813 8.91341ZM3.60512 10.9105L2.94429 10.2655L3.39147 9.82598L3.60512 10.9105Z" fill="#763D16" stroke="#763D16" stroke-width="0.190386"/>
<path id="Vector_48" d="M12.7474 14.236L13.8604 13.29L13.7014 15.6025L12.7474 14.236Z" fill="#CD6116" stroke="#CD6116" stroke-width="0.190386"/>
<path id="Vector_49" d="M13.8604 13.29L12.7475 14.236L11.1277 15.0435L13.8604 13.29Z" fill="#CD6116" stroke="#CD6116" stroke-width="0.190386"/>
<path id="Vector_50" d="M19.0676 18.3448L18.7646 18.1298L16.5933 15.416L19.0676 18.3448Z" fill="#F6851B" stroke="#F6851B" stroke-width="0.190386"/>
<path id="Vector_51" d="M11.1278 15.0433L8.88196 13.1895L13.8605 13.2898L11.1278 15.0433Z" fill="#CD6116" stroke="#CD6116" stroke-width="0.190386"/>
<path id="Vector_52" d="M13.7014 15.6025L13.8604 13.29L14.4716 14.7521L13.7014 15.6025Z" fill="#E4751F" stroke="#E4751F" stroke-width="0.190386"/>
<path id="Vector_53" d="M2.72583 9.27669L3.12829 8.91357L3.39163 9.82614L2.72583 9.27669Z" fill="#763D16" stroke="#763D16" stroke-width="0.190386"/>
<path id="Vector_54" d="M13.7014 15.6023L11.1277 15.0433L12.7475 14.2358L13.7014 15.6023Z" fill="#233447" stroke="#233447" stroke-width="0.190386"/>
<path id="Vector_55" d="M7.7092 6.27616L2.90454 5.23937L4.86715 2L7.7092 6.27616Z" fill="#763D16" stroke="#763D16" stroke-width="0.190386"/>
<path id="Vector_56" d="M15.6044 21.0303L15.8776 21.747L11.4556 20.7197L15.6044 21.0303Z" fill="#C0AD9E" stroke="#C0AD9E" stroke-width="0.190386"/>
<path id="Vector_57" d="M11.3711 16.902L11.1277 15.0435L13.7014 15.6025L11.3711 16.902Z" fill="#F6851B" stroke="#F6851B" stroke-width="0.190386"/>
<path id="Vector_58" d="M8.88196 13.1895L11.1278 15.0433L11.3712 16.9018L8.88196 13.1895Z" fill="#E4751F" stroke="#E4751F" stroke-width="0.190386"/>
<path id="Vector_59" d="M14.4716 14.7518L16.4392 14.6419L18.7645 18.1297L14.4716 14.7518ZM8.88194 13.1895L11.3712 16.9018L8.31055 17.0452L8.88194 13.1895Z" fill="#F6851B" stroke="#F6851B" stroke-width="0.190386"/>
<path id="Vector_60" d="M14.4716 14.752L16.9161 18.3305L13.7014 15.6024L14.4716 14.752Z" fill="#E4751F" stroke="#E4751F" stroke-width="0.190386"/>
<path id="Vector_61" d="M13.7014 15.6025L16.9161 18.3307L16.5782 18.6221L13.7014 15.6025Z" fill="#F6851B" stroke="#F6851B" stroke-width="0.190386"/>
<path id="Vector_62" d="M16.5782 18.622L11.3711 16.902L13.7014 15.6024L16.5782 18.622ZM18.7644 18.1299L16.9161 18.3305L14.4715 14.752L18.7644 18.1299Z" fill="#F6851B" stroke="#F6851B" stroke-width="0.190386"/>
<path id="Vector_63" d="M19.2516 19.8115L18.4566 21.3452L15.8779 21.7466L19.2516 19.8115ZM15.8779 21.7466L15.6046 21.0299L16.2654 20.3323L15.8779 21.7466Z" fill="#C0AD9E" stroke="#C0AD9E" stroke-width="0.190386"/>
<path id="Vector_64" d="M16.2652 20.3323L16.7522 20.146L15.8777 21.7466L16.2652 20.3323ZM15.8777 21.7466L16.7522 20.146L19.2514 19.8115L15.8777 21.7466Z" fill="#C0AD9E" stroke="#C0AD9E" stroke-width="0.190386"/>
<path id="Vector_65" d="M18.7646 18.1299L19.3757 18.4882L17.5175 18.7032L18.7646 18.1299Z" fill="#161616" stroke="#161616" stroke-width="0.190386"/>
<path id="Vector_66" d="M17.5173 18.7032L16.9161 18.3306L18.7645 18.1299L17.5173 18.7032ZM17.3037 18.9851L19.5644 18.7223L19.2514 19.8117L17.3037 18.9851Z" fill="#161616" stroke="#161616" stroke-width="0.190386"/>
<path id="Vector_67" d="M19.2514 19.8117L16.7522 20.1461L17.3037 18.9851L19.2514 19.8117ZM16.7522 20.1461L16.2653 20.3325L16.5783 18.622L16.7522 20.1461ZM16.5783 18.622L16.9161 18.3306L17.5174 18.7032L16.5783 18.622ZM19.3756 18.4882L19.5644 18.7224L17.3037 18.9851L19.3756 18.4882Z" fill="#161616" stroke="#161616" stroke-width="0.190386"/>
<path id="Vector_68" d="M17.3037 18.9852L17.5173 18.7033L19.3756 18.4883L17.3037 18.9852ZM16.5782 18.6221L17.3037 18.9852L16.7521 20.1462L16.5782 18.6221Z" fill="#161616" stroke="#161616" stroke-width="0.190386"/>
<path id="Vector_69" d="M17.5173 18.7033L17.3037 18.9852L16.5782 18.6221L17.5173 18.7033Z" fill="#161616" stroke="#161616" stroke-width="0.190386"/>
</g>
</g>
</svg>
