<svg width="20" height="21" viewBox="0 0 20 21" fill="none" xmlns="http://www.w3.org/2000/svg">
<path d="M6.79909 17.6744L6.25873 18.1945H6.25873L6.79909 17.6744ZM6.79119 17.6662L6.25371 18.1893L6.79119 17.6662ZM6.08008 17.3637L6.08422 16.6137L6.08008 17.3637ZM13.9199 17.3637L13.9158 16.6137L13.9199 17.3637ZM13.2009 17.6744L12.6605 17.1543L13.2009 17.6744ZM13.2088 17.6662L13.7463 18.1893L13.2088 17.6662ZM12.8819 18.0058L13.4223 18.5259L12.8819 18.0058ZM7.11805 18.0058L7.65842 17.4857H7.65842L7.11805 18.0058ZM10 20.1159V20.8659V20.1159ZM1.00029 12.4176L0.250335 12.4257L1.00029 12.4176ZM5.94604 17.3633L5.93795 18.1133L5.94604 17.3633ZM18.9997 12.4176L19.7497 12.4257L18.9997 12.4176ZM14.054 17.3633L14.0621 18.1133L14.054 17.3633ZM16.3962 1.61161L16.0368 2.26987L16.3962 1.61161ZM18.3884 3.60375L17.7301 3.96319L18.3884 3.60375ZM3.60375 1.61161L3.96319 2.26987L3.60375 1.61161ZM1.61161 3.60375L2.26987 3.96319L1.61161 3.60375ZM3.26973 16.553L2.85969 17.181L3.26973 16.553ZM16.7303 16.553L17.1403 17.181L16.7303 16.553ZM13.25 7C13.25 8.79493 11.7949 10.25 10 10.25V11.75C12.6234 11.75 14.75 9.62335 14.75 7H13.25ZM10 10.25C8.20507 10.25 6.75 8.79493 6.75 7H5.25C5.25 9.62335 7.37665 11.75 10 11.75V10.25ZM6.75 7C6.75 5.20507 8.20507 3.75 10 3.75V2.25C7.37665 2.25 5.25 4.37665 5.25 7H6.75ZM10 3.75C11.7949 3.75 13.25 5.20507 13.25 7H14.75C14.75 4.37665 12.6234 2.25 10 2.25V3.75ZM9.18182 1.75H10.8182V0.25H9.18182V1.75ZM18.25 9.18182V12.2949H19.75V9.18182H18.25ZM1.75 12.2949V9.18182H0.25V12.2949H1.75ZM12.6605 17.1543L12.3416 17.4857L13.4223 18.5259L13.7413 18.1945L12.6605 17.1543ZM7.65842 17.4857L7.33946 17.1543L6.25873 18.1945L6.57769 18.5259L7.65842 17.4857ZM7.33946 17.1543C7.33615 17.1508 7.33241 17.147 7.32868 17.1431L6.25371 18.1893C6.25359 18.1892 6.25372 18.1893 6.25452 18.1901C6.25543 18.1911 6.2566 18.1923 6.25873 18.1945L7.33946 17.1543ZM6.0687 18.1136C6.07173 18.1136 6.07342 18.1136 6.0747 18.1136C6.07584 18.1136 6.07605 18.1136 6.07593 18.1136L6.08422 16.6137C6.0789 16.6136 6.07361 16.6136 6.0687 16.6136V18.1136ZM7.32868 17.1431C7.00157 16.807 6.55323 16.6163 6.08422 16.6137L6.07593 18.1136C6.14293 18.114 6.20698 18.1413 6.25371 18.1893L7.32868 17.1431ZM13.9313 16.6136C13.9264 16.6136 13.9211 16.6136 13.9158 16.6137L13.9241 18.1136C13.924 18.1136 13.9242 18.1136 13.9253 18.1136C13.9266 18.1136 13.9283 18.1136 13.9313 18.1136V16.6136ZM13.7413 18.1945C13.7457 18.1899 13.7461 18.1895 13.7463 18.1893L12.6713 17.1431C12.6677 17.1469 12.6641 17.1506 12.6605 17.1543L13.7413 18.1945ZM13.9158 16.6137C13.4468 16.6163 12.9984 16.807 12.6713 17.1431L13.7463 18.1893C13.793 18.1413 13.8571 18.114 13.9241 18.1136L13.9158 16.6137ZM12.3416 17.4857C11.6496 18.2046 11.1826 18.6875 10.7872 19.0001C10.4088 19.2991 10.1884 19.3659 10 19.3659V20.8659C10.6625 20.8659 11.206 20.5811 11.7174 20.1768C12.2118 19.786 12.7603 19.2137 13.4223 18.5259L12.3416 17.4857ZM6.57769 18.5259C7.23971 19.2137 7.78823 19.7859 8.28257 20.1768C8.79398 20.5811 9.3375 20.8659 10 20.8659V19.3659C9.8116 19.3659 9.59116 19.2991 9.21283 19.0001C8.81742 18.6875 8.35043 18.2046 7.65842 17.4857L6.57769 18.5259ZM0.25 12.2949C0.25 12.3568 0.249989 12.3936 0.250335 12.4257L1.75025 12.4095C1.75001 12.3876 1.75 12.3607 1.75 12.2949H0.25ZM6.0687 16.6136C6.00293 16.6136 5.97604 16.6136 5.95413 16.6134L5.93795 18.1133C5.97 18.1136 6.0069 18.1136 6.0687 18.1136V16.6136ZM18.25 12.2949C18.25 12.3607 18.25 12.3876 18.2498 12.4095L19.7497 12.4257C19.75 12.3936 19.75 12.3568 19.75 12.2949H18.25ZM13.9313 18.1136C13.9931 18.1136 14.03 18.1136 14.0621 18.1133L14.0459 16.6134C14.024 16.6136 13.9971 16.6136 13.9313 16.6136V18.1136ZM10.8182 1.75C12.3173 1.75 13.3938 1.75066 14.237 1.82366C15.0706 1.89583 15.6056 2.03442 16.0368 2.26987L16.7557 0.953347C16.0668 0.577186 15.2988 0.409977 14.3664 0.329246C13.4435 0.249345 12.291 0.25 10.8182 0.25V1.75ZM19.75 9.18182C19.75 7.70898 19.7507 6.55649 19.6708 5.63362C19.59 4.70118 19.4228 3.9332 19.0467 3.24432L17.7301 3.96319C17.9656 4.39438 18.1042 4.92944 18.1763 5.76301C18.2493 6.60616 18.25 7.68267 18.25 9.18182H19.75ZM16.0368 2.26987C16.7519 2.66033 17.3397 3.24811 17.7301 3.96319L19.0467 3.24432C18.5184 2.27685 17.7231 1.48162 16.7557 0.953347L16.0368 2.26987ZM9.18182 0.25C7.70897 0.25 6.55649 0.249345 5.63362 0.329246C4.70118 0.409977 3.9332 0.577186 3.24432 0.953347L3.96319 2.26987C4.39438 2.03442 4.92944 1.89583 5.76301 1.82366C6.60616 1.75066 7.68267 1.75 9.18182 1.75V0.25ZM1.75 9.18182C1.75 7.68267 1.75066 6.60616 1.82366 5.76301C1.89583 4.92944 2.03442 4.39438 2.26987 3.96319L0.953347 3.24432C0.577186 3.9332 0.409977 4.70118 0.329246 5.63362C0.249345 6.55648 0.25 7.70897 0.25 9.18182H1.75ZM3.24432 0.953347C2.27685 1.48162 1.48162 2.27685 0.953347 3.24432L2.26987 3.96319C2.66033 3.24811 3.24811 2.66033 3.96319 2.26987L3.24432 0.953347ZM7 14.75H13V13.25H7V14.75ZM7 13.25C4.98142 13.25 3.2587 14.5088 2.57056 16.2816L3.9689 16.8244C4.44057 15.6093 5.62086 14.75 7 14.75V13.25ZM0.250335 12.4257C0.27184 14.4183 1.30611 16.1666 2.85969 17.181L3.67978 15.9251C2.52838 15.1732 1.76613 13.881 1.75025 12.4095L0.250335 12.4257ZM2.85969 17.181C3.74659 17.7601 4.80376 18.1011 5.93795 18.1133L5.95413 16.6134C5.11403 16.6043 4.3345 16.3526 3.67978 15.9251L2.85969 17.181ZM13 14.75C14.3791 14.75 15.5594 15.6093 16.0311 16.8244L17.4294 16.2816C16.7413 14.5088 15.0186 13.25 13 13.25V14.75ZM18.2498 12.4095C18.2339 13.881 17.4716 15.1732 16.3202 15.9251L17.1403 17.181C18.6939 16.1666 19.7282 14.4183 19.7497 12.4257L18.2498 12.4095ZM16.3202 15.9251C15.6655 16.3526 14.886 16.6043 14.0459 16.6134L14.0621 18.1133C15.1962 18.1011 16.2534 17.7601 17.1403 17.181L16.3202 15.9251Z" fill="currentColor"/>
</svg>
