<svg width="20" height="19" viewBox="0 0 20 19" fill="none" xmlns="http://www.w3.org/2000/svg">
<g id="Group 4">
<path id="Vector" fill-rule="evenodd" clip-rule="evenodd" d="M3.66194 0.752075L0.0152366 8.41198C0.0013598 8.44047 -0.00303765 8.47265 0.00268727 8.50382C0.0084122 8.53499 0.0239592 8.56351 0.0470546 8.58521L9.89592 18.0228C9.92389 18.0496 9.96116 18.0646 9.99992 18.0646C10.0387 18.0646 10.0759 18.0496 10.1039 18.0228L19.9528 8.5858C19.9759 8.5641 19.9914 8.53558 19.9971 8.50441C20.0029 8.47324 19.9985 8.44106 19.9846 8.41256L16.3379 0.752664C16.3261 0.726939 16.3072 0.705146 16.2834 0.689891C16.2596 0.674636 16.2318 0.666563 16.2036 0.666637H3.79746C3.76904 0.666284 3.74112 0.674162 3.71707 0.689322C3.69302 0.704482 3.67388 0.726276 3.66194 0.752075V0.752075V0.752075Z" fill="#50AF95"/>
<path id="Vector_2" fill-rule="evenodd" clip-rule="evenodd" d="M11.2652 9.19862C11.1945 9.20392 10.8292 9.22572 10.0143 9.22572C9.36613 9.22572 8.90594 9.20628 8.74449 9.19862C6.23971 9.08843 4.3701 8.65241 4.3701 8.13035C4.3701 7.6083 6.23971 7.17287 8.74449 7.06091V8.76436C8.9083 8.77614 9.37732 8.80384 10.0255 8.80384C10.8032 8.80384 11.1927 8.77143 11.2628 8.76495V7.06209C13.7623 7.17346 15.6278 7.60948 15.6278 8.13035C15.6278 8.65123 13.7629 9.08725 11.2628 9.19803L11.2652 9.19862ZM11.2652 6.88592V5.36159H14.7534V3.03711H5.25629V5.36159H8.74391V6.88533C5.90915 7.01554 3.77734 7.57707 3.77734 8.24997C3.77734 8.92286 5.90915 9.4838 8.74391 9.61461V14.4993H11.2646V9.61284C14.0929 9.48262 16.2211 8.92168 16.2211 8.24938C16.2211 7.57707 14.0946 7.01613 11.2646 6.88533L11.2652 6.88592Z" fill="white"/>
</g>
</svg>
