<svg xmlns="http://www.w3.org/2000/svg" width="20" height="20" viewBox="0 0 20 20" fill="none">
  <path d="M3.65628 17.7193L4.04815 17.0798L4.04815 17.0798L3.65628 17.7193ZM2.28069 16.3437L2.92017 15.9518L2.92017 15.9518L2.28069 16.3437ZM17.7194 16.3437L17.0799 15.9518L17.0799 15.9518L17.7194 16.3437ZM16.3438 17.7193L15.9519 17.0798L15.9519 17.0798L16.3438 17.7193ZM16.3438 4.78063L15.9519 5.42011L15.9519 5.42011L16.3438 4.78063ZM17.7194 6.15622L17.0799 6.54809L17.0799 6.54809L17.7194 6.15622ZM3.65628 4.78063L4.04815 5.42011L4.04815 5.42011L3.65628 4.78063ZM2.28069 6.15622L2.92017 6.54809L2.92017 6.54809L2.28069 6.15622ZM15.3973 2.122L15.9386 1.60283L15.9386 1.60283L15.3973 2.122ZM3.20354 2.40895L3.65638 3.00681L3.65638 3.00681L3.20354 2.40895ZM2.37873 3.26885L2.99405 3.69766L2.37873 3.26885ZM15.8334 4.27523L16.5834 4.27523L16.5833 4.27152L15.8334 4.27523ZM15.3031 11.4697C15.7173 11.4697 16.0531 11.1339 16.0531 10.7197C16.0531 10.3055 15.7173 9.96967 15.3031 9.96967V11.4697ZM13.0303 9.96967C12.6161 9.96967 12.2803 10.3055 12.2803 10.7197C12.2803 11.1339 12.6161 11.4697 13.0303 11.4697V9.96967ZM8.75002 4.91663H11.25V3.41663H8.75002V4.91663ZM11.25 17.5833H8.75002V19.0833H11.25V17.5833ZM8.75002 17.5833C7.37157 17.5833 6.3904 17.5825 5.62693 17.5099C4.87462 17.4384 4.41148 17.3025 4.04815 17.0798L3.26441 18.3588C3.90303 18.7501 4.62284 18.9212 5.48495 19.0032C6.33589 19.0841 7.40062 19.0833 8.75002 19.0833V17.5833ZM0.91669 11.25C0.91669 12.5994 0.915899 13.6641 0.996808 14.515C1.07878 15.3771 1.24986 16.097 1.64121 16.7356L2.92017 15.9518C2.69752 15.5885 2.5616 15.1254 2.49007 14.3731C2.41748 13.6096 2.41669 12.6284 2.41669 11.25H0.91669ZM4.04815 17.0798C3.58842 16.7981 3.20189 16.4116 2.92017 15.9518L1.64121 16.7356C2.04662 17.3971 2.60284 17.9534 3.26441 18.3588L4.04815 17.0798ZM11.25 19.0833C12.5994 19.0833 13.6642 19.0841 14.5151 19.0032C15.3772 18.9212 16.097 18.7501 16.7356 18.3588L15.9519 17.0798C15.5886 17.3025 15.1254 17.4384 14.3731 17.5099C13.6096 17.5825 12.6285 17.5833 11.25 17.5833V19.0833ZM17.0799 15.9518C16.7982 16.4116 16.4116 16.7981 15.9519 17.0798L16.7356 18.3588C17.3972 17.9534 17.9534 17.3971 18.3588 16.7356L17.0799 15.9518ZM15.9519 5.42011C16.4116 5.70183 16.7982 6.08836 17.0799 6.54809L18.3588 5.76434C17.9534 5.10278 17.3972 4.54655 16.7356 4.14115L15.9519 5.42011ZM8.75002 3.41663C7.40062 3.41663 6.33589 3.41583 5.48495 3.49674C4.62284 3.57871 3.90303 3.74979 3.26441 4.14115L4.04815 5.42011C4.41148 5.19746 4.87462 5.06154 5.62693 4.99001C6.3904 4.91742 7.37157 4.91663 8.75002 4.91663V3.41663ZM2.41669 11.25C2.41669 9.87151 2.41748 8.89034 2.49007 8.12686C2.5616 7.37455 2.69752 6.91142 2.92017 6.54809L1.64121 5.76434C1.24986 6.40297 1.07878 7.12278 0.996808 7.98488C0.915899 8.83583 0.91669 9.90055 0.91669 11.25H2.41669ZM3.26441 4.14115C2.60284 4.54655 2.04662 5.10278 1.64121 5.76434L2.92017 6.54809C3.20189 6.08836 3.58842 5.70183 4.04815 5.42011L3.26441 4.14115ZM8.37758 2.41663H12.8515V0.916626H8.37758V2.41663ZM12.8515 2.41663C13.5766 2.41663 14.0418 2.41835 14.3838 2.46629C14.7009 2.51073 14.7988 2.58148 14.8561 2.64117L15.9386 1.60283C15.5591 1.20715 15.0871 1.05021 14.592 0.980808C14.1218 0.914898 13.5324 0.916626 12.8515 0.916626V2.41663ZM8.37758 0.916626C6.99698 0.916626 5.89875 0.915508 5.02539 1.01416C4.13608 1.11461 3.391 1.32609 2.7507 1.8111L3.65638 3.00681C3.99611 2.74948 4.44006 2.58981 5.19375 2.50468C5.96341 2.41774 6.96218 2.41663 8.37758 2.41663V0.916626ZM2.41669 8.66298C2.41669 7.18948 2.41764 6.14215 2.50168 5.33348C2.58444 4.53709 2.74098 4.06079 2.99405 3.69766L1.76341 2.84003C1.30444 3.49863 1.10496 4.26193 1.00971 5.17844C0.915742 6.08267 0.91669 7.22155 0.91669 8.66298H2.41669ZM2.7507 1.8111C2.37068 2.09894 2.03774 2.44639 1.76341 2.84003L2.99405 3.69766C3.17964 3.43136 3.40338 3.19845 3.65638 3.00681L2.7507 1.8111ZM16.5833 4.27152C16.5806 3.70869 16.5687 3.20996 16.4961 2.79305C16.4201 2.35706 16.2676 1.94578 15.9386 1.60283L14.8561 2.64117C14.911 2.69848 14.9737 2.79466 15.0183 3.05064C15.0663 3.3257 15.0805 3.70346 15.0834 4.27893L16.5833 4.27152ZM0.91669 8.66298C0.91669 9.47165 0.89988 10.2215 0.91695 10.8535L2.4164 10.813C2.4 10.2054 2.41669 9.52439 2.41669 8.66298H0.91669ZM17.9167 12.2424H13.0303V13.7424H17.9167V12.2424ZM10.0076 10.7197C10.0076 12.3891 11.3609 13.7424 13.0303 13.7424V12.2424C12.1893 12.2424 11.5076 11.5606 11.5076 10.7197H10.0076ZM11.5076 10.7197C11.5076 9.87869 12.1893 9.19694 13.0303 9.19694V7.69694C11.3609 7.69694 10.0076 9.05026 10.0076 10.7197H11.5076ZM15.3031 9.96967H13.0303V11.4697H15.3031V9.96967ZM11.25 4.91663C12.4053 4.91663 13.2845 4.91695 13.9952 4.96081C14.7052 5.00462 15.1904 5.08956 15.5671 5.23261L16.0996 3.83033C15.5156 3.60854 14.8558 3.51106 14.0876 3.46366C13.3202 3.4163 12.3881 3.41663 11.25 3.41663V4.91663ZM15.5671 5.23261C15.7077 5.28602 15.8342 5.34799 15.9519 5.42011L16.7356 4.14115C16.5341 4.01765 16.323 3.91517 16.0996 3.83033L15.5671 5.23261ZM15.0834 4.27523V4.53147H16.5834V4.27523H15.0834ZM13.0303 9.19694H18.287V7.69694H13.0303V9.19694ZM19.0834 11.25C19.0834 10.106 19.0837 9.17003 19.0356 8.40016L17.5385 8.49373C17.583 9.20626 17.5834 10.0885 17.5834 11.25H19.0834ZM19.0356 8.40016C18.9698 7.3479 18.8099 6.50048 18.3588 5.76434L17.0799 6.54809C17.3379 6.96909 17.4776 7.52021 17.5385 8.49373L19.0356 8.40016ZM17.5834 11.25C17.5834 11.9065 17.5833 12.476 17.575 12.9799L19.0748 13.0048C19.0834 12.4859 19.0834 11.903 19.0834 11.25H17.5834ZM17.575 12.9799C17.5478 14.6146 17.4263 15.3866 17.0799 15.9518L18.3588 16.7356C18.9457 15.7779 19.0481 14.6089 19.0748 13.0048L17.575 12.9799ZM17.9167 13.7424H18.3249V12.2424H17.9167V13.7424Z" fill="black"/>
</svg>