<svg viewBox="0 0 35 36" fill="none" xmlns="http://www.w3.org/2000/svg">
<path d="M29.7195 15.8424L29.7196 15.8425L34.3782 17.5907L29.7196 19.3389L29.7195 19.339C24.9244 21.1393 21.1477 24.973 19.3746 29.8311L17.6575 34.5335L15.9447 29.8314L15.9446 29.8311C14.1714 24.9719 10.3902 21.1392 5.59545 19.339C5.59543 19.339 5.59542 19.339 5.5954 19.339L0.940802 17.5907L5.59522 15.8425C5.59529 15.8425 5.59537 15.8424 5.59545 15.8424C10.3948 14.0425 14.1715 10.2088 15.9446 5.35026L15.9447 5.35L17.6575 0.648344L19.3745 5.35024C21.1477 10.2097 24.9245 14.0426 29.7195 15.8424ZM0.770477 17.6547L0.77057 17.6546L0.770477 17.6547Z" fill="white" stroke="#141414"/>
</svg>
