<svg viewBox="0 0 42 43" fill="none" xmlns="http://www.w3.org/2000/svg">
<path d="M22.8568 6.89999L22.8568 6.89995L20.7285 1.06598C20.7274 1.06288 20.7264 1.06068 20.7256 1.05923C20.725 1.05914 20.7242 1.05908 20.7232 1.05908C20.7223 1.05908 20.7215 1.05914 20.7208 1.05923C20.7201 1.06066 20.7191 1.06282 20.718 1.06586C20.7179 1.0659 20.7179 1.06594 20.7179 1.06598L18.5897 6.89995L18.5897 6.90002C16.4865 12.6626 12.0065 17.2093 6.3188 19.3442L6.14309 18.8761L6.31879 19.3442L0.567239 21.503C0.565159 21.5038 0.563694 21.5044 0.562727 21.5049C0.561988 21.5068 0.560791 21.5109 0.560791 21.5169C0.560791 21.523 0.561988 21.527 0.562727 21.5289C0.563694 21.5294 0.565159 21.53 0.567239 21.5308L6.31879 23.6896L6.31884 23.6896C12.0051 25.8245 16.4865 30.3699 18.5897 36.1336L18.5897 36.1337L20.7179 41.9678L22.8568 6.89999ZM22.8568 6.89999C24.9599 12.6639 29.4414 17.2093 35.1276 19.3442L35.1277 19.3442M22.8568 6.89999L35.1277 19.3442M35.1277 19.3442L40.8788 21.5031L35.1277 19.3442ZM22.8568 36.1337L22.8568 36.1336C24.9599 30.3713 29.44 25.8245 35.1277 23.6896L40.8788 21.5307L22.8568 36.1337ZM22.8568 36.1337L20.7285 41.9678L22.8568 36.1337ZM40.8836 21.5052C40.8826 21.5047 40.8811 21.504 40.8789 21.5031L40.8836 21.5052ZM40.8836 21.5052C40.8843 21.507 40.8855 21.511 40.8855 21.5169C40.8855 21.5229 40.8843 21.5268 40.8836 21.5286C40.8826 21.5291 40.8811 21.5299 40.8789 21.5307L40.8836 21.5052ZM20.7256 41.9746C20.7263 41.9731 20.7274 41.971 20.7285 41.9678L20.7256 41.9746ZM20.7256 41.9746C20.7249 41.9747 20.7242 41.9748 20.7232 41.9748C20.7223 41.9748 20.7215 41.9747 20.7209 41.9746C20.7201 41.9732 20.7191 41.971 20.718 41.9678L20.7256 41.9746Z" fill="#FFD258" stroke="#141414"/>
</svg>
